<?xml version="1.0" encoding="utf-8"?>
<!-- Generator: Adobe Illustrator 25.2.0, SVG Export Plug-In . SVG Version: 6.00 Build 0)  -->
<svg version="1.1" id="Layer_1" xmlns="http://www.w3.org/2000/svg" xmlns:xlink="http://www.w3.org/1999/xlink" x="0px" y="0px"
	 viewBox="0 0 16 16" style="enable-background:new 0 0 16 16;" xml:space="preserve">
<style type="text/css">
	.st0{fill:#FFFFFF;}
</style>
<g>
	<g>
		<g>
			
				<rect x="3.7" y="2.5" transform="matrix(0.1812 -0.9834 0.9834 0.1812 -2.0642 15.6403)" class="st0" width="9.3" height="13.1"/>
			<path d="M14.8,5.7c0.2,0,0.4,0.3,0.3,0.5l-1.4,7.9c0,0.2-0.3,0.4-0.5,0.3L1.8,12.3c-0.2,0-0.4-0.3-0.3-0.5l1.4-7.9
				c0-0.2,0.3-0.4,0.5-0.3L14.8,5.7z M3.6,2.7c-0.7-0.1-1.4,0.4-1.5,1l-1.4,7.9c-0.1,0.7,0.4,1.4,1,1.5L13,15.2
				c0.7,0.1,1.4-0.4,1.5-1l1.4-7.9c0.1-0.7-0.4-1.4-1-1.5C14.9,4.8,3.6,2.7,3.6,2.7z"/>
			<path d="M4.4,6c0-0.2,0.3-0.4,0.5-0.3l7.9,1.4c0.2,0,0.4,0.3,0.3,0.5c0,0.2-0.3,0.5-0.5,0.4L4.7,6.6C4.5,6.6,4.3,6.3,4.4,6z
				 M4,8.2C4,8,4.3,7.8,4.5,7.9l7.9,1.4c0.2,0,0.4,0.3,0.3,0.5c0,0.2-0.3,0.5-0.5,0.4L4.3,8.8C4.1,8.7,3.9,8.5,4,8.2z M3.6,10.5
				c0-0.2,0.3-0.4,0.5-0.3l5.2,1c0.2,0,0.4,0.3,0.3,0.5s-0.2,0.4-0.5,0.3l-5.2-1C3.7,10.9,3.5,10.7,3.6,10.5z"/>
		</g>
	</g>
	<g>
		<g>
			<rect x="1.3" y="2.4" transform="matrix(0.9825 -0.1865 0.1865 0.9825 -1.1797 1.5882)" class="st0" width="13.1" height="9.3"/>
			<path d="M12.7,1.6c0.2,0,0.4,0.1,0.5,0.3l1.5,7.9c0,0.2-0.1,0.4-0.3,0.5L2.9,12.4c-0.2,0-0.4-0.1-0.5-0.3L1,4.3
				c0-0.2,0.1-0.4,0.3-0.5L12.7,1.6z M1.1,2.9C0.4,3-0.1,3.7,0.1,4.4l1.5,7.9c0.1,0.7,0.8,1.2,1.5,1l11.3-2.1c0.7-0.1,1.2-0.8,1-1.5
				l-1.5-7.9c-0.1-0.7-0.8-1.2-1.5-1C12.4,0.8,1.1,2.9,1.1,2.9z"/>
			<path d="M3.1,5.7c0-0.2,0.1-0.4,0.3-0.5l7.9-1.5c0.2,0,0.4,0.1,0.5,0.3c0,0.2-0.1,0.5-0.3,0.6L3.5,6.1C3.4,6.1,3.1,6,3.1,5.7z
				 M3.5,7.8c0-0.2,0.1-0.4,0.3-0.5l7.9-1.5c0.2,0,0.4,0.1,0.5,0.3c0,0.2-0.1,0.5-0.3,0.6L4,8.3C3.8,8.3,3.5,8.1,3.5,7.8z M3.9,10.1
				c0-0.2,0.1-0.4,0.3-0.5l5.2-1c0.2,0,0.4,0.1,0.5,0.3s0,0.4-0.3,0.5l-5.2,1C4.2,10.5,3.9,10.3,3.9,10.1z"/>
		</g>
	</g>
</g>
</svg>
